<svg xmlns="http://www.w3.org/2000/svg" width="88" height="88" viewBox="0 0 88 88"><defs><style>.a{fill:#4e78ae;}.b{fill:#fff;}</style></defs><g transform="translate(-210 -2516)"><circle class="a" cx="44" cy="44" r="44" transform="translate(210 2516)"/><g transform="translate(230 2512.918)"><path class="b" d="M13.46,34.9a.691.691,0,0,0,0-1.383h-5.3a4.11,4.11,0,1,0,0,1.383ZM4.11,36.94a2.727,2.727,0,1,1,2.727-2.727A2.73,2.73,0,0,1,4.11,36.94Z" transform="translate(0 -3.41)"/><path class="b" d="M141.984,30.236a.691.691,0,0,0-1.37.189,2.761,2.761,0,0,1,.026.378,2.727,2.727,0,1,1-2.727-2.727,2.7,2.7,0,0,1,1.232.293.691.691,0,1,0,.626-1.233,4.111,4.111,0,0,0-5.909,2.975H122.844V28.454a2.11,2.11,0,0,0-2.108-2.108h-4.7a2.11,2.11,0,0,0-2.108,2.108v1.658h-2.4a.691.691,0,0,0,0,1.383h2.4v1.658a2.111,2.111,0,0,0,1.651,2.058l-.175,1.046a19.8,19.8,0,0,1-6.538,11.733,20.253,20.253,0,0,1-3.156,2.232l-.742.425a1.152,1.152,0,0,0-.311,1.739l1.042,1.246a29.489,29.489,0,0,1,5.588,10.29,1.419,1.419,0,0,0-.222.762v2.64a1.431,1.431,0,0,0,1.429,1.429H124.28a1.431,1.431,0,0,0,1.429-1.429v-2.64a1.42,1.42,0,0,0-.255-.813,29.8,29.8,0,0,1,1.074-2.921.691.691,0,0,0-1.271-.545c-.4.928-.753,1.884-1.059,2.849H112.528a30.86,30.86,0,0,0-5.767-10.51l-.865-1.035.5-.288a21.653,21.653,0,0,0,3.372-2.385,21.185,21.185,0,0,0,7-12.552l.7-4.208a.933.933,0,0,1,.222-.465V47.624a3.648,3.648,0,1,0,1.383,0V31.79a.933.933,0,0,1,.24.485l.7,4.208a21.184,21.184,0,0,0,7,12.552,21.639,21.639,0,0,0,3.372,2.385l.477.273-.169.188a31.091,31.091,0,0,0-4.094,5.759.691.691,0,0,0,1.211.668,29.709,29.709,0,0,1,3.912-5.5l.36-.4a1.152,1.152,0,0,0-.285-1.77l-.725-.415a20.248,20.248,0,0,1-3.156-2.232,19.8,19.8,0,0,1-6.538-11.733l-.176-1.05a2.111,2.111,0,0,0,1.634-2.054V31.494h11.017a4.11,4.11,0,0,0,8.122-1.258ZM124.326,67.323a.046.046,0,0,1-.046.046H112.495a.046.046,0,0,1-.046-.046v-2.64a.046.046,0,0,1,.046-.046H124.28a.046.046,0,0,1,.046.046Zm-3.673-16.117a2.265,2.265,0,1,1-2.265-2.265A2.268,2.268,0,0,1,120.653,51.206Zm.809-18.053a.726.726,0,0,1-.481.682l-.3-1.787a2.318,2.318,0,0,0-4.572,0l-.3,1.793a.726.726,0,0,1-.5-.688v-4.7a.726.726,0,0,1,.725-.725h4.7a.726.726,0,0,1,.725.725v4.7Z" transform="translate(-94.752)"/></g></g></svg>