<svg xmlns="http://www.w3.org/2000/svg" width="88" height="88" viewBox="0 0 88 88"><defs><style>.a{fill:#72b2e4;}.b{fill:#fff;}</style></defs><g transform="translate(-937 -1851)"><circle class="a" cx="44" cy="44" r="44" transform="translate(937 1851)"/><g transform="translate(879.872 1868.578)"><path class="b" d="M115.116,0H87.506a3.381,3.381,0,0,0-3.378,3.378v46.6a3.382,3.382,0,0,0,3.378,3.378h27.61a3.382,3.382,0,0,0,3.378-3.378V3.378A3.382,3.382,0,0,0,115.116,0Zm-29.3,8.49H116.8V43.773H85.821Zm1.685-6.8h27.611A1.687,1.687,0,0,1,116.8,3.378V7.361H85.821V3.378A1.687,1.687,0,0,1,87.506,1.693Zm27.611,49.967H87.506a1.687,1.687,0,0,1-1.685-1.685V44.9H116.8v5.073A1.687,1.687,0,0,1,115.116,51.659Z" transform="translate(0)"/><path class="b" d="M214.614,404.552a2.772,2.772,0,1,0,2.772,2.772A2.775,2.775,0,0,0,214.614,404.552Zm0,4.415a1.643,1.643,0,1,1,1.643-1.643A1.645,1.645,0,0,1,214.614,408.967Z" transform="translate(-113.303 -358.903)"/><path class="b" d="M197.97,38.773h7.673a.564.564,0,0,0,0-1.128H197.97a.564.564,0,0,0,0,1.128Z" transform="translate(-100.496 -33.397)"/><path class="b" d="M179.973,38.773a.562.562,0,1,0-.4-.165A.568.568,0,0,0,179.973,38.773Z" transform="translate(-84.53 -33.397)"/></g></g></svg>