<svg xmlns="http://www.w3.org/2000/svg" width="88" height="88" viewBox="0 0 88 88"><defs><style>.a{fill:#ae8b4e;}.b{fill:#fff;}</style></defs><g transform="translate(-210 -1210)"><circle class="a" cx="44" cy="44" r="44" transform="translate(210 1210)"/><g transform="translate(233 1213.334)"><g transform="translate(0 21.333)"><path class="b" d="M37.989,21.333H3.454A3.457,3.457,0,0,0,0,24.787V48.962a3.457,3.457,0,0,0,3.454,3.454h12.09c-.037,1.38-.3,3.586-1.286,4.622a1.694,1.694,0,0,1-1.306.558.863.863,0,1,0,0,1.727H28.492a.863.863,0,0,0,0-1.727,1.694,1.694,0,0,1-1.306-.558C26.2,56,25.937,53.8,25.9,52.415H37.99a3.457,3.457,0,0,0,3.454-3.454V24.787A3.457,3.457,0,0,0,37.989,21.333ZM16,57.6a10.515,10.515,0,0,0,1.27-5.18h6.892a10.515,10.515,0,0,0,1.27,5.18Zm23.711-8.634a1.729,1.729,0,0,1-1.727,1.727H3.454a1.729,1.729,0,0,1-1.727-1.727V45.508H39.716Zm0-5.18H1.727V24.787A1.729,1.729,0,0,1,3.454,23.06H37.989a1.729,1.729,0,0,1,1.727,1.727V43.781Z" transform="translate(0 -21.333)"/><circle class="b" cx="1.727" cy="1.727" r="1.727" transform="translate(18.995 25.039)"/></g></g></g></svg>